<?xml version="1.0" encoding="UTF-8" standalone="no"?>
<!-- Created with Inkscape (http://www.inkscape.org/) -->

<svg
   width="57.149998mm"
   height="48.682934mm"
   viewBox="0 0 57.149998 48.682934"
   version="1.1"
   id="svg5"
   xml:space="preserve"
   inkscape:version="1.2 (dc2aedaf03, 2022-05-15)"
   sodipodi:docname="ScalesIcon2.svg"
   xmlns:inkscape="http://www.inkscape.org/namespaces/inkscape"
   xmlns:sodipodi="http://sodipodi.sourceforge.net/DTD/sodipodi-0.dtd"
   xmlns="http://www.w3.org/2000/svg"
   xmlns:svg="http://www.w3.org/2000/svg"><sodipodi:namedview
     id="namedview7"
     pagecolor="#ffffff"
     bordercolor="#000000"
     borderopacity="0.25"
     inkscape:showpageshadow="2"
     inkscape:pageopacity="0.0"
     inkscape:pagecheckerboard="0"
     inkscape:deskcolor="#d1d1d1"
     inkscape:document-units="mm"
     showgrid="false"
     inkscape:zoom="2.025849"
     inkscape:cx="22.212909"
     inkscape:cy="78.732422"
     inkscape:window-width="1920"
     inkscape:window-height="991"
     inkscape:window-x="-9"
     inkscape:window-y="-9"
     inkscape:window-maximized="1"
     inkscape:current-layer="layer1" /><defs
     id="defs2" /><g
     inkscape:label="Слой 1"
     inkscape:groupmode="layer"
     id="layer1"
     transform="translate(-44.566791,-134.59397)"><path
       d="m 101.64109,160.6593 -8.46667,-21.16667 c -0.003,-0.007 -0.0074,-0.0141 -0.01058,-0.0216 -0.0081,-0.0191 -0.01796,-0.0369 -0.02713,-0.0554 a 1.0582434,1.0582434 0 0 0 -0.06408,-0.11188 c -0.01215,-0.0183 -0.02429,-0.0364 -0.03747,-0.054 a 1.0496947,1.0496947 0 0 0 -0.09224,-0.10606 c -0.01034,-0.0103 -0.01925,-0.0218 -0.02985,-0.0316 a 1.0517822,1.0517822 0 0 0 -0.142237,-0.11098 c -0.01447,-0.009 -0.02997,-0.0171 -0.04496,-0.0258 a 1.0678583,1.0678583 0 0 0 -0.118078,-0.0602 c -0.01977,-0.008 -0.03966,-0.0163 -0.05995,-0.0235 a 1.0477976,1.0477976 0 0 0 -0.124539,-0.0357 c -0.01886,-0.004 -0.03721,-0.01 -0.05646,-0.0129 a 1.0487554,1.0487554 0 0 0 -0.175064,-0.0156 c -0.0027,0 -0.0052,5.3e-4 -0.0079,6.5e-4 -0.01356,1.3e-4 -0.02725,0.002 -0.04082,0.003 a 1.066845,1.066845 0 0 0 -0.155289,0.0185 c -0.0085,0.002 -0.01705,0.001 -0.02558,0.003 l -17.762068,3.94723 v -7.14749 a 1.0583335,1.0583335 0 0 0 -2.116667,0 v 7.61788 l -18.22124,4.04911 c -0.0099,0.002 -0.01847,0.007 -0.02829,0.009 a 1.0622068,1.0622068 0 0 0 -0.143669,0.0474 c -0.01421,0.006 -0.02894,0.0105 -0.04276,0.0169 a 1.0590953,1.0590953 0 0 0 -0.158776,0.0907 c -0.01395,0.01 -0.0261,0.0209 -0.0394,0.0311 a 1.076116,1.076116 0 0 0 -0.102965,0.0895 c -0.01473,0.0147 -0.02868,0.0296 -0.04238,0.0451 a 1.0591271,1.0591271 0 0 0 -0.08178,0.10477 c -0.01008,0.0147 -0.02106,0.0287 -0.03036,0.0439 a 1.0414609,1.0414609 0 0 0 -0.08268,0.16123 l -0.0018,0.004 -10e-4,0.003 -8.463817,21.15968 a 1.0584868,1.0584868 0 0 0 -0.07575,0.39299 c 0,5.39709 5.842408,7.40834 9.525001,7.40834 3.682592,0 9.525,-2.01125 9.525,-7.40834 a 1.0584868,1.0584868 0 0 0 -0.07571,-0.39299 l -8.004287,-20.0108 16.546663,-3.67704 v 35.7225 h -5.291666 a 1.058335,1.058335 0 0 0 0,2.11667 h 12.7 a 1.058335,1.058335 0 0 0 0,-2.11667 H 74.200125 V 144.96735 L 90.464893,141.35297 82.7425,160.6589 a 1.0584868,1.0584868 0 0 0 -0.07571,0.393 c 0,5.39709 5.842407,7.40833 9.525,7.40833 3.682592,0 9.525,-2.01124 9.525,-7.40833 a 1.0584868,1.0584868 0 0 0 -0.0757,-0.393 z m -47.549298,14.15133 c -1.892779,0 -7.24244,-0.94309 -7.404587,-5.09736 l 7.404587,-18.51127 7.404586,18.51127 c -0.162134,4.15427 -5.511807,5.09736 -7.404586,5.09736 z m 38.1,-8.46667 c -1.892779,0 -7.242453,-0.94309 -7.404587,-5.09736 l 7.404587,-18.51127 7.404586,18.51127 c -0.162134,4.15427 -5.511807,5.09736 -7.404586,5.09736 z"
       id="path9"
       style="stroke-width:0.264583" /></g></svg>
