<?xml version="1.0" encoding="UTF-8" standalone="no"?>
<!-- Created with Inkscape (http://www.inkscape.org/) -->

<svg
   width="57.149998mm"
   height="48.682934mm"
   viewBox="0 0 57.149998 48.682934"
   version="1.1"
   id="svg5"
   xml:space="preserve"
   inkscape:version="1.2 (dc2aedaf03, 2022-05-15)"
   sodipodi:docname="ScalesActiveIcon.svg"
   xmlns:inkscape="http://www.inkscape.org/namespaces/inkscape"
   xmlns:sodipodi="http://sodipodi.sourceforge.net/DTD/sodipodi-0.dtd"
   xmlns="http://www.w3.org/2000/svg"
   xmlns:svg="http://www.w3.org/2000/svg"><sodipodi:namedview
     id="namedview7"
     pagecolor="#ffffff"
     bordercolor="#000000"
     borderopacity="0.25"
     inkscape:showpageshadow="2"
     inkscape:pageopacity="0.0"
     inkscape:pagecheckerboard="0"
     inkscape:deskcolor="#d1d1d1"
     inkscape:document-units="mm"
     showgrid="false"
     inkscape:zoom="1.0129245"
     inkscape:cx="97.7368"
     inkscape:cy="129.82211"
     inkscape:window-width="1920"
     inkscape:window-height="991"
     inkscape:window-x="-9"
     inkscape:window-y="-9"
     inkscape:window-maximized="1"
     inkscape:current-layer="layer1" /><defs
     id="defs2" /><g
     inkscape:label="Слой 1"
     inkscape:groupmode="layer"
     id="layer1"
     transform="translate(-56.018104,-107.90481)"><path
       d="m 113.09258,133.97014 -8.46667,-21.16667 c -0.003,-0.007 -0.007,-0.0141 -0.0106,-0.0216 -0.008,-0.0191 -0.018,-0.0369 -0.0271,-0.0554 a 1.0582434,1.0582434 0 0 0 -0.0641,-0.11188 c -0.0121,-0.0183 -0.0243,-0.0364 -0.0375,-0.054 a 1.0496947,1.0496947 0 0 0 -0.0922,-0.10606 c -0.0103,-0.0103 -0.0192,-0.0218 -0.0298,-0.0316 a 1.0517822,1.0517822 0 0 0 -0.14223,-0.11098 c -0.0145,-0.009 -0.03,-0.0171 -0.045,-0.0258 a 1.0678583,1.0678583 0 0 0 -0.11808,-0.0602 c -0.0198,-0.008 -0.0397,-0.0163 -0.06,-0.0235 a 1.0477976,1.0477976 0 0 0 -0.12454,-0.0357 c -0.0189,-0.004 -0.0372,-0.01 -0.0565,-0.0129 a 1.0487554,1.0487554 0 0 0 -0.17507,-0.0156 c -0.003,0 -0.005,5.3e-4 -0.008,6.5e-4 -0.0136,1.3e-4 -0.0272,0.002 -0.0408,0.003 a 1.066845,1.066845 0 0 0 -0.15528,0.0185 c -0.008,0.002 -0.017,0.001 -0.0256,0.003 l -17.762072,3.94723 v -7.14749 a 1.0583335,1.0583335 0 0 0 -2.116667,0 v 7.61788 l -18.22124,4.04911 c -0.0099,0.002 -0.01847,0.007 -0.02829,0.009 a 1.0622068,1.0622068 0 0 0 -0.143669,0.0474 c -0.01421,0.006 -0.02894,0.0105 -0.04276,0.0169 a 1.0590953,1.0590953 0 0 0 -0.158776,0.0907 c -0.01395,0.01 -0.0261,0.0209 -0.0394,0.0311 a 1.076116,1.076116 0 0 0 -0.102965,0.0895 c -0.01473,0.0147 -0.02868,0.0296 -0.04238,0.0451 a 1.0591271,1.0591271 0 0 0 -0.08178,0.10477 c -0.01008,0.0147 -0.02106,0.0287 -0.03036,0.0439 a 1.0414609,1.0414609 0 0 0 -0.08268,0.16123 l -0.0018,0.004 -0.001,0.003 -8.463817,21.15968 a 1.0584868,1.0584868 0 0 0 -0.07575,0.39299 c 0,5.39709 5.842408,7.40834 9.525001,7.40834 3.682592,0 9.525,-2.01125 9.525,-7.40834 a 1.0584868,1.0584868 0 0 0 -0.07571,-0.39299 l -8.004287,-20.0108 16.546663,-3.67704 v 35.7225 h -5.291666 a 1.058335,1.058335 0 0 0 0,2.11667 h 12.7 a 1.058335,1.058335 0 0 0 0,-2.11667 h -5.291667 v -36.19288 l 16.264772,-3.61438 -7.722397,19.30593 a 1.0584868,1.0584868 0 0 0 -0.07571,0.393 c 0,5.39709 5.842407,7.40833 9.524997,7.40833 3.68259,0 9.525,-2.01124 9.525,-7.40833 a 1.0584868,1.0584868 0 0 0 -0.0757,-0.393 z m -47.549295,14.15133 c -1.892779,0 -7.24244,-0.94309 -7.404587,-5.09736 l 7.404587,-18.51127 7.404586,18.51127 c -0.162134,4.15427 -5.511807,5.09736 -7.404586,5.09736 z m 38.099995,-8.46667 c -1.89277,0 -7.242448,-0.94309 -7.404582,-5.09736 l 7.404582,-18.51127 7.40459,18.51127 c -0.16213,4.15427 -5.51181,5.09736 -7.40459,5.09736 z"
       id="path9"
       style="fill:#000000;stroke-width:0.264583" /><path
       style="fill:#000000;stroke:#000000;stroke-width:3.7313"
       d="m 242.36752,559.17661 c -3.59041,-0.60355 -8.98195,-2.38263 -11.95474,-3.94479 -6.31089,-3.31627 -10.8065,-9.72441 -10.10357,-14.4018 0.14852,-0.98822 6.3753,-17.0126 13.83729,-35.60975 11.7854,-29.37214 13.63049,-33.6509 14.04871,-32.57893 0.26479,0.67873 6.51995,16.32586 13.90035,34.7714 14.58846,36.46041 13.95034,34.36567 11.89589,39.0499 -2.62349,5.9817 -10.42362,10.75558 -20.48473,12.5372 -2.84787,0.50429 -8.64365,0.59627 -11.1392,0.17677 z"
       id="path243"
       transform="scale(0.26458333)" /><path
       style="fill:#000000;stroke:#000000;stroke-width:3.7313"
       d="m 384.18784,526.69021 c -6.88446,-1.49635 -13.2161,-4.70192 -16.15683,-8.17982 -1.98221,-2.34431 -3.73242,-6.34627 -3.78129,-8.64618 -0.0305,-1.43722 3.4423,-10.61255 13.62165,-35.98882 7.51444,-18.73288 13.72601,-34.12563 13.80347,-34.20609 0.0775,-0.0805 6.40325,15.50779 14.0573,34.64056 l 13.91646,34.78686 -0.80678,2.87457 c -1.53874,5.48264 -5.66842,9.64665 -12.34559,12.44822 -6.81815,2.86072 -15.51911,3.74636 -22.30839,2.2707 z"
       id="path245"
       transform="scale(0.26458333)" /></g></svg>
