<?xml version="1.0" encoding="UTF-8" standalone="no"?>
<!-- Created with Inkscape (http://www.inkscape.org/) -->

<svg
   width="152.07201mm"
   height="126.05928mm"
   viewBox="0 0 152.07201 126.05928"
   version="1.1"
   id="svg5"
   xml:space="preserve"
   inkscape:version="1.2 (dc2aedaf03, 2022-05-15)"
   sodipodi:docname="ShoppingCartActiveIcon.svg"
   xmlns:inkscape="http://www.inkscape.org/namespaces/inkscape"
   xmlns:sodipodi="http://sodipodi.sourceforge.net/DTD/sodipodi-0.dtd"
   xmlns="http://www.w3.org/2000/svg"
   xmlns:svg="http://www.w3.org/2000/svg"><sodipodi:namedview
     id="namedview7"
     pagecolor="#ffffff"
     bordercolor="#000000"
     borderopacity="0.25"
     inkscape:showpageshadow="2"
     inkscape:pageopacity="0.0"
     inkscape:pagecheckerboard="0"
     inkscape:deskcolor="#d1d1d1"
     inkscape:document-units="mm"
     showgrid="false"
     inkscape:zoom="1.4324916"
     inkscape:cx="545.90199"
     inkscape:cy="248.86708"
     inkscape:window-width="1920"
     inkscape:window-height="991"
     inkscape:window-x="-9"
     inkscape:window-y="-9"
     inkscape:window-maximized="1"
     inkscape:current-layer="layer1" /><defs
     id="defs2" /><g
     inkscape:label="Слой 1"
     inkscape:groupmode="layer"
     id="layer1"
     transform="translate(-25.734521,-66.113273)"><g
       id="g71"
       transform="matrix(0.16843365,0,0,0.16843365,25.734521,53.106827)"><g
         id="g15">
	<g
   id="g13">
		<path
   d="M 671.504,577.829 781.989,145.22 H 902.86 v -68 H 729.174 L 703.128,179.2 0,178.697 74.753,577.826 h 596.751 z m 14.262,-330.641 -67.077,262.64 H 131.199 L 81.928,246.756 Z"
   id="path9" />
		<path
   d="m 578.418,825.641 c 59.961,0 108.743,-48.783 108.743,-108.744 0,-59.961 -48.782,-108.742 -108.743,-108.742 H 168.717 c -59.961,0 -108.744,48.781 -108.744,108.742 0,59.961 48.782,108.744 108.744,108.744 59.962,0 108.743,-48.783 108.743,-108.744 0,-14.4 -2.821,-28.152 -7.927,-40.742 h 208.069 c -5.107,12.59 -7.928,26.342 -7.928,40.742 0.001,59.961 48.783,108.744 108.744,108.744 z M 209.46,716.897 c 0,22.467 -18.277,40.744 -40.743,40.744 -22.466,0 -40.744,-18.277 -40.744,-40.744 0,-22.465 18.277,-40.742 40.744,-40.742 22.466,0 40.743,18.277 40.743,40.742 z m 409.702,0 c 0,22.467 -18.277,40.744 -40.743,40.744 -22.466,0 -40.743,-18.277 -40.743,-40.744 0,-22.465 18.277,-40.742 40.743,-40.742 22.466,0 40.743,18.277 40.743,40.742 z"
   id="path11" />
	</g>
</g><g
         id="g17">
</g><g
         id="g19">
</g><g
         id="g21">
</g><g
         id="g23">
</g><g
         id="g25">
</g><g
         id="g27">
</g><g
         id="g29">
</g><g
         id="g31">
</g><g
         id="g33">
</g><g
         id="g35">
</g><g
         id="g37">
</g><g
         id="g39">
</g><g
         id="g41">
</g><g
         id="g43">
</g><g
         id="g45">
</g></g><path
       style="fill:#000000;stroke:#000000;stroke-width:5.27686"
       d="m 165.86147,443.45965 c -8.36197,-44.63462 -15.37105,-82.01774 -15.57572,-83.07359 l -0.37213,-1.91973 h 191.71142 c 105.44129,0 191.70102,0.0785 191.68829,0.17452 -0.0127,0.096 -9.54199,37.39987 -21.17615,82.89752 l -21.15301,82.723 -154.95956,0.17606 -154.95955,0.17606 z"
       id="path300"
       transform="scale(0.26458333)" /><path
       style="fill:#000000;stroke:#000000;stroke-width:5.27686"
       d="m 195.33908,680.75459 c -10.76759,-4.53913 -16.41074,-13.52566 -15.79975,-25.16057 0.25059,-4.77189 0.6728,-6.38035 2.64709,-10.08418 4.75638,-8.92314 12.61885,-13.66595 22.70135,-13.69393 4.82319,-0.0134 6.20338,0.27965 10.12222,2.14913 11.36541,5.42186 17.31076,17.36976 14.36499,28.8682 -1.9971,7.79544 -6.56942,13.47658 -13.8672,17.23009 -2.97598,1.53066 -4.78412,1.91646 -9.92193,2.11704 -5.40173,0.21088 -6.83863,0.0109 -10.24677,-1.42578 z"
       id="path302"
       transform="scale(0.26458333)" /><path
       style="fill:#000000;stroke:#000000;stroke-width:5.27686"
       d="m 457.83458,681.43776 c -11.1679,-4.13448 -17.53483,-12.99977 -17.62457,-24.54036 -0.0378,-4.8608 0.23778,-6.17282 2.12604,-10.12222 2.76864,-5.79077 7.07296,-10.09738 12.81497,-12.82182 3.90938,-1.85491 5.31067,-2.15081 10.12222,-2.13745 10.06688,0.0279 17.88429,4.73519 22.74172,13.69393 2.2673,4.18168 2.38932,4.76322 2.38932,11.38756 0,6.10664 -0.23343,7.47884 -1.86401,10.95748 -2.38112,5.07981 -7.24351,9.93788 -12.30955,12.29861 -4.75512,2.21585 -14.11482,2.86927 -18.39614,1.28427 z"
       id="path304"
       transform="scale(0.26458333)" /></g></svg>
